# xmcd
# 
# Track frame offsets:
#     150
#     24267
#     45092
#     62265
#     77612
#     96925
#     119112
#     140420
#     159437
#     179685
#     195612
#     214860
#     233465
#     252572
#     277395
#     293955
#     308412
# 
# Disc length: 4393
# 
# Revision: 10
# Processed by: cddbd v1.5.2PL0 Copyright (c) Steve Scherf et al.
# Submitted via: fre:ac v1.0.17
# 
DISCID=ed112711
DTITLE=Celine Dion - These Are Special Times
DYEAR=1998
DGENRE=Pop
TTITLE0=O Holy Night
TTITLE1=Don't Save It All For Christmas Day
TTITLE2=Blue Christmas
TTITLE3=Another Year Has Gone By
TTITLE4=The Magic Of Christmas Day(God Bless Us Everyone)
TTITLE5=Ave Maria
TTITLE6=Adeste Fideles(O Come All Ye Faithful)
TTITLE7=The Christmas Song(Chestnuts Roasting On An Open Fire)
TTITLE8=The Prayer(Duet with Andrea Bocelli)
TTITLE9=Brahms' Lullaby
TTITLE10=Christmas Eve
TTITLE11=These Are The Special Times
TTITLE12=Happy Xmas(War Is Over)
TTITLE13=I'm Your Angel(Duet with R Kelly)
TTITLE14=Feliz Navidad
TTITLE15=Les Cloches Du Hameau
TTITLE16=My Heart Will Go On(no lead vox)
EXTD=YEAR: 1998
EXTT0=
EXTT1=
EXTT2=
EXTT3=
EXTT4=
EXTT5=
EXTT6=
EXTT7=
EXTT8=
EXTT9=
EXTT10=
EXTT11=
EXTT12=
EXTT13=
EXTT14=
EXTT15=
EXTT16=
PLAYORDER=
